<svg id="Layer_1" data-name="Layer 1" xmlns="http://www.w3.org/2000/svg" viewBox="0 0 1306.41 878.2"><defs><style>.cls-1{font-size:100px;font-family:Montserrat-SemiBold, Montserrat;font-weight:600;letter-spacing:0.1em;}.cls-1,.cls-3{fill:#2d2d2d;}.cls-2{fill:#83c441;}</style></defs><title>PF Green + Black</title><text class="cls-1" transform="translate(135.56 708.58)">PURSUIT FITNESS</text><path class="cls-2" d="M887.72,256.8l-12.94,38.29h151.66c-4.9,14.24-9.3,27.26-13.86,40.22-4,11.3-8.53,22.41-12,33.84-1.75,5.74-4.64,7.31-10.27,7.29-44.83-.16-89.66-.07-134.49-.05-10.38,0-10.58-.06-14.21,9.87-18.26,50-36.52,100-54.43,150.17-2.17,6.1-5,8.21-11.46,8.14-28-.31-56,0-84-.16-35.92-.22-64.59-26.69-66.12-62.54-.45-10.52,2.45-21.7,6-31.8,19-54,38.77-107.7,58.25-161.51,3.26-9,6.64-18,9.65-27.06,1.4-4.23,3.84-5.78,8.24-5.77q86.85.15,173.7.12A49.14,49.14,0,0,1,887.72,256.8Z"/><path class="cls-3" d="M1017.41,257.69c3.19-9.62,6.09-18.32,9.32-28l-320.28-86.5.33-1.93h482.38c-3,8.7-5.55,16.67-8.38,24.56-10.35,28.82-20.86,57.57-31.09,86.43-1.57,4.42-3.75,6.34-8.58,6.32-39.23-.14-78.47-.06-117.7-.09A55.25,55.25,0,0,1,1017.41,257.69Z"/><path class="cls-3" d="M315.41,412.34l28.07-81c17.43,0,75.38.46,92,.46,20.24,0,32.5-4.52,40.37-18.85,10.59-19.3,18.37-40.35,25.44-61.3,4-11.87-2.29-18.8-15.6-22.81C393.46,201,301.26,173.14,209,142.9c4.29-.33,8.58-1,12.86-1,134.26,0,268.52-.25,402.78.32a158.83,158.83,0,0,1,46.7,7.41c20.87,6.63,32.16,23.42,30.9,45.07A216.3,216.3,0,0,1,692,247.35c-11.14,34.79-24,69-36.57,103.36-4.92,13.37-9.82,27.06-17.14,39.15-8.09,13.36-22.24,20.13-37.61,20.82-36,1.63-72,2.47-107.93,2.77-42.4.35-84.81-.2-127.21-.39C363.5,413.05,320.32,412.74,315.41,412.34Z"/><path class="cls-2" d="M278.85,544.46c-36.23,0-71.3,2-106-.55-37.12-2.76-63.32-43.19-53.49-79.33,5.13-18.86,12.57-37.11,19.23-55.54q24.85-68.78,49.95-137.45c1.62-4.43,3.51-8.76,5.44-13.57H382.33Z"/></svg>